<svg xmlns="http://www.w3.org/2000/svg" viewBox="0 0 676 964" role="img" aria-label="Aquantica">
  <title>Aquantica</title>
  <g transform="translate(0,964) scale(0.1,-0.1)" fill="#FFFFFF">
    <path d="M3047 9621 c-3 -12 -14 -19 -28 -20 -44 -1 -233 -28 -279 -39 -25 -6
-74 -18 -110 -27 -165 -40 -243 -63 -306 -90 -18 -8 -48 -17 -68 -20 -19 -4
-40 -13 -47 -21 -6 -8 -18 -14 -27 -14 -36 0 -288 -126 -490 -245 -42 -25
-138 -89 -147 -99 -6 -6 -18 -15 -26 -21 -52 -33 -97 -66 -119 -86 -14 -13
-50 -44 -80 -69 -115 -93 -237 -209 -345 -326 -156 -169 -395 -473 -395 -503
0 -6 -5 -11 -10 -11 -6 0 -15 -10 -20 -22 -6 -13 -24 -43 -40 -68 -17 -25 -36
-56 -43 -70 -7 -14 -24 -43 -38 -65 -35 -55 -129 -243 -129 -259 0 -8 -7 -19
-15 -26 -8 -7 -15 -20 -15 -29 0 -9 -12 -38 -25 -66 -14 -27 -25 -58 -25 -67
0 -9 -4 -20 -10 -23 -5 -3 -14 -25 -20 -48 -6 -23 -17 -53 -24 -67 -7 -14 -17
-43 -21 -65 -3 -21 -13 -52 -21 -67 -8 -15 -14 -36 -14 -48 0 -11 -9 -45 -19
-75 -11 -31 -23 -81 -27 -113 -3 -31 -11 -65 -16 -75 -30 -57 -43 -285 -43
-732 0 -517 7 -599 76 -870 6 -22 15 -62 20 -90 6 -27 15 -58 21 -69 6 -11 16
-42 24 -70 18 -72 53 -169 64 -180 6 -6 10 -17 10 -26 0 -9 9 -33 20 -55 11
-22 20 -43 20 -48 0 -18 94 -204 159 -315 36 -62 74 -128 84 -147 10 -19 23
-35 28 -35 5 0 9 -5 9 -11 0 -11 37 -65 127 -187 51 -68 38 -52 150 -182 137
-159 336 -344 488 -453 88 -64 219 -152 245 -165 14 -7 43 -24 65 -37 88 -53
404 -205 427 -205 8 0 18 -4 24 -10 10 -10 96 -42 174 -64 25 -7 55 -18 65
-23 11 -6 40 -14 65 -18 25 -4 52 -11 61 -16 45 -23 335 -70 549 -87 124 -10
375 -5 399 7 9 5 79 12 156 16 77 4 169 13 204 21 64 15 98 13 86 -6 -3 -5
-16 -10 -27 -10 -12 0 -31 -8 -42 -18 -12 -10 -59 -33 -106 -51 -47 -18 -89
-37 -95 -42 -5 -5 -16 -9 -25 -9 -8 0 -37 -11 -65 -25 -27 -13 -57 -25 -66
-25 -8 0 -24 -7 -35 -15 -10 -8 -26 -15 -34 -15 -8 0 -37 -11 -65 -25 -27 -13
-57 -25 -65 -25 -9 0 -24 -6 -35 -14 -11 -7 -34 -17 -52 -20 -17 -4 -48 -16
-69 -27 -21 -10 -45 -19 -54 -19 -8 0 -24 -7 -34 -15 -11 -8 -27 -15 -36 -15
-8 0 -32 -9 -53 -20 -20 -11 -42 -20 -49 -20 -6 0 -30 -9 -52 -19 -23 -11 -60
-25 -83 -31 -23 -6 -45 -15 -48 -20 -3 -6 -14 -10 -23 -10 -10 0 -35 -9 -56
-19 -21 -11 -52 -23 -69 -27 -18 -3 -39 -12 -47 -19 -8 -7 -29 -16 -47 -19
-17 -4 -48 -16 -69 -27 -21 -10 -46 -19 -55 -19 -9 0 -22 -7 -29 -15 -7 -8
-20 -15 -29 -15 -9 0 -38 -11 -66 -25 -27 -13 -56 -25 -63 -25 -8 0 -26 -6
-40 -14 -42 -23 -140 -66 -149 -66 -4 0 -28 -10 -53 -21 -50 -24 -93 -43 -130
-59 -14 -5 -32 -14 -40 -18 -8 -5 -35 -18 -60 -29 -103 -47 -280 -135 -345
-173 -38 -22 -79 -44 -90 -49 -33 -14 -235 -153 -300 -205 -169 -136 -426
-412 -452 -483 -3 -10 -13 -26 -21 -36 -19 -21 -32 -44 -73 -127 -17 -36 -36
-74 -42 -84 -15 -30 -57 -203 -57 -236 0 -80 43 -181 104 -247 33 -34 64 -63
68 -63 5 0 21 -9 36 -19 37 -27 187 -55 221 -42 14 5 48 12 75 15 124 15 212
122 247 301 6 28 16 82 24 120 8 39 17 110 21 159 3 50 12 110 20 135 8 25 14
55 14 67 0 27 57 205 70 218 6 6 10 17 10 24 0 25 67 118 117 162 79 69 135
91 298 117 39 6 103 6 140 -1 131 -23 163 -30 182 -42 12 -8 28 -14 34 -14 31
0 241 -107 340 -173 31 -20 61 -37 66 -37 6 0 16 -7 23 -15 7 -8 49 -39 94
-69 44 -30 124 -86 176 -125 52 -39 100 -71 106 -71 6 0 17 -6 23 -14 7 -8 44
-36 84 -62 40 -27 95 -65 123 -86 28 -21 56 -38 62 -38 7 0 12 -5 12 -10 0 -6
10 -14 23 -19 13 -5 61 -35 107 -66 46 -31 91 -60 99 -63 9 -3 36 -20 61 -37
25 -17 56 -36 70 -43 14 -7 43 -24 65 -37 22 -13 72 -40 110 -60 39 -20 84
-44 100 -53 76 -40 104 -52 118 -52 8 0 20 -6 26 -14 7 -8 27 -18 44 -22 18
-3 43 -12 57 -19 30 -16 106 -42 176 -59 28 -8 59 -18 70 -24 55 -29 164 -37
539 -37 426 0 536 14 668 81 16 8 34 14 40 14 25 0 242 108 318 158 158 104
176 118 389 332 372 371 495 542 488 681 l-3 64 -46 24 -45 24 -54 -29 c-42
-22 -74 -54 -139 -134 -108 -132 -368 -394 -441 -442 -184 -121 -348 -169
-575 -170 -89 0 -239 18 -265 32 -10 5 -39 14 -66 20 -52 11 -141 43 -186 66
-14 8 -32 14 -39 14 -24 0 -371 172 -494 246 -22 13 -53 31 -70 40 -62 33 -92
50 -146 87 -31 20 -59 37 -62 37 -3 0 -36 21 -74 46 -37 25 -84 55 -103 65
-19 11 -52 30 -72 42 -20 12 -94 55 -165 95 -70 40 -135 77 -143 82 -160 96
-394 199 -500 220 -25 5 -67 16 -95 25 -96 29 -405 45 -563 30 -82 -8 -119 6
-66 25 16 5 36 15 44 20 8 6 26 15 40 20 14 6 37 17 52 25 14 8 32 15 40 15 7
0 36 11 63 25 28 13 55 25 60 25 6 0 28 9 50 20 22 11 47 20 56 20 9 0 22 6
28 14 7 8 26 17 44 20 18 3 51 15 72 26 22 11 47 20 56 20 9 0 22 6 28 14 7 8
28 17 48 21 20 4 46 13 57 21 11 8 27 14 36 14 9 0 33 9 55 20 21 11 54 23 72
26 18 3 37 12 44 20 6 8 19 14 28 14 9 0 34 9 56 20 21 11 54 23 72 26 18 3
37 12 44 20 6 8 19 14 28 14 9 0 34 9 56 20 22 11 43 20 48 20 4 0 34 11 65
26 31 14 71 31 87 38 17 7 50 22 75 33 25 12 68 31 95 43 219 96 594 287 760
386 22 13 47 27 55 30 14 6 126 77 182 115 15 11 32 19 38 19 6 0 13 7 16 15
4 8 11 15 17 15 5 0 25 11 43 25 18 14 38 25 44 25 6 0 13 7 16 15 4 8 11 15
16 15 11 0 7 -3 225 168 244 192 503 436 626 591 16 20 48 58 72 86 24 27 60
73 79 100 65 92 211 310 224 335 7 14 30 57 52 95 40 71 138 266 171 340 9 22
27 61 38 86 12 25 21 50 21 55 0 6 9 27 20 49 11 22 20 45 20 53 0 8 6 26 14
40 17 31 42 105 60 178 8 28 18 59 24 70 5 10 13 39 17 64 4 25 12 53 17 63
13 25 59 276 74 401 4 36 10 50 25 53 18 5 19 19 19 359 0 295 -2 353 -14 348
-19 -7 -25 13 -37 124 -10 97 -38 238 -63 322 -8 25 -17 61 -21 80 -3 19 -12
51 -20 70 -15 41 -40 116 -59 180 -8 25 -21 59 -30 75 -9 17 -16 36 -16 43 0
8 -6 26 -13 40 -8 15 -23 47 -34 72 -51 114 -168 342 -208 405 -25 39 -49 81
-55 95 -6 13 -27 43 -46 66 -19 23 -34 47 -34 52 0 39 -354 438 -525 592 -106
95 -400 309 -470 342 -11 5 -38 20 -60 33 -43 26 -222 116 -295 148 -25 11
-56 26 -70 32 -14 7 -38 15 -55 19 -16 4 -43 13 -60 21 -65 30 -137 50 -430
120 -34 8 -102 19 -152 25 -107 12 -126 18 -119 36 5 12 -62 14 -408 14 -398
0 -414 -1 -419 -19z m493 -271 c74 -5 155 -16 180 -24 25 -8 67 -17 94 -21 27
-4 59 -13 70 -20 12 -7 37 -15 56 -19 35 -6 45 -10 151 -60 31 -14 59 -26 62
-26 11 0 154 -86 212 -127 33 -24 78 -55 100 -69 96 -63 485 -494 485 -538 0
-3 16 -29 35 -56 19 -27 35 -53 35 -58 0 -4 8 -18 18 -32 53 -74 232 -429 232
-462 0 -8 5 -19 11 -25 12 -12 37 -77 64 -163 23 -75 46 -143 60 -180 16 -44
42 -144 59 -232 8 -38 18 -80 24 -95 6 -16 16 -71 22 -123 7 -52 16 -103 21
-115 5 -11 13 -74 19 -140 6 -66 13 -140 15 -165 24 -244 24 -569 1 -830 -22
-236 -28 -294 -41 -355 -7 -38 -17 -99 -21 -135 -3 -36 -11 -76 -16 -90 -5
-14 -16 -56 -23 -95 -15 -79 -40 -175 -56 -220 -6 -16 -17 -52 -24 -80 -21
-76 -45 -147 -61 -177 -8 -14 -14 -32 -14 -40 0 -8 -9 -31 -20 -53 -11 -22
-20 -43 -20 -48 0 -10 -38 -94 -100 -217 -78 -157 -118 -229 -175 -315 -30
-45 -55 -85 -55 -89 0 -4 -51 -71 -114 -149 -113 -142 -296 -327 -378 -383
-24 -16 -65 -46 -91 -66 -27 -21 -54 -38 -60 -38 -6 0 -18 -6 -26 -14 -30 -26
-247 -130 -296 -142 -16 -4 -39 -13 -50 -19 -11 -7 -38 -16 -60 -19 -22 -4
-58 -13 -80 -21 -35 -13 -106 -24 -265 -41 -70 -8 -270 -9 -319 -2 -25 4 -88
12 -140 18 -53 6 -108 16 -122 21 -15 6 -53 16 -85 24 -72 16 -175 52 -188 65
-6 6 -16 10 -24 10 -21 0 -198 89 -267 135 -179 117 -393 310 -501 451 -27 36
-66 87 -86 114 -21 27 -38 52 -38 56 0 4 -17 32 -37 63 -47 70 -59 91 -123
221 -28 58 -58 117 -66 132 -8 14 -14 32 -14 39 0 7 -9 31 -19 53 -22 46 -46
109 -66 176 -7 25 -18 59 -24 75 -27 77 -61 198 -61 218 0 12 -6 34 -14 49 -8
14 -17 50 -21 80 -4 29 -13 67 -20 84 -7 17 -16 60 -20 95 -4 35 -13 82 -20
104 -7 22 -18 85 -25 140 -7 55 -16 107 -21 115 -4 9 -11 63 -14 120 -4 58
-11 137 -16 175 -34 256 -37 743 -4 940 2 17 9 75 14 130 5 55 15 120 21 145
6 25 17 81 25 125 20 112 65 290 96 380 6 17 17 50 24 75 8 25 21 63 29 85 8
22 15 47 16 56 0 9 7 22 15 29 8 7 15 20 15 29 0 9 9 34 20 56 11 22 20 44 20
50 0 22 160 327 247 473 13 20 28 48 35 62 7 14 18 30 23 35 6 6 24 30 40 55
138 210 369 440 580 576 73 47 247 134 268 134 8 0 20 7 27 15 7 8 18 15 26
15 7 0 48 11 91 24 136 41 214 56 352 66 74 5 135 11 137 12 4 5 107 0 254
-12z"/>
  </g>
</svg>
